<svg width="120" height="120" viewBox="0 0 120 120" fill="none" xmlns="http://www.w3.org/2000/svg">
<path d="M48.486 8.85867C51.666 11.1298 54.708 12.6252 57.21 12.9541C55.8367 15.7672 54.8858 18.7803 54.39 21.8896C50.358 20.965 46.524 18.7622 43.374 16.5159C41.8656 15.4336 40.4061 14.2803 39 13.0596V26.922C38.9991 27.8496 38.7301 28.7558 38.2276 29.5243C37.7252 30.2927 37.0121 30.8883 36.18 31.2346L36.144 31.2532C35.8076 31.3959 35.4754 31.549 35.148 31.7124C34.446 32.0537 33.426 32.5811 32.232 33.2885C29.2993 34.9971 26.5928 37.0912 24.18 39.5186C21.462 42.3295 19.782 46.1147 18.84 49.0497C17.622 52.8101 14.526 56.2788 10.122 57.042C9.80934 57.0962 9.52526 57.2629 9.31994 57.5127C9.11463 57.7625 9.00131 58.0793 9 58.4072V69.2911C9 70.315 9.72 71.1899 10.698 71.3574C14.442 72.0028 17.388 74.5345 19.05 77.5999C21.2618 81.688 23.9965 85.4492 27.18 88.7816C29.9236 91.5381 33.1516 93.7264 36.69 95.2288C38.194 95.884 39.7471 96.4111 41.334 96.805L41.364 96.8174C42.3881 97.0246 43.3107 97.5934 43.974 98.4265C44.6372 99.2596 44.9999 100.305 45 101.384V109.141C45 109.997 45.672 110.692 46.5 110.692H54C54 108.224 54.9482 105.856 56.636 104.111C58.3239 102.365 60.6131 101.384 63 101.384H75C77.387 101.384 79.6761 102.365 81.364 104.111C83.0518 105.856 84 108.224 84 110.692H91.5C91.8978 110.692 92.2794 110.529 92.5607 110.238C92.842 109.947 93 109.552 93 109.141V95.1792C93 93.4231 93.96 91.816 95.472 91.0217L95.55 90.9783L95.97 90.7301C96.36 90.4881 96.954 90.1096 97.68 89.5635C99.132 88.4714 101.106 86.7774 103.08 84.3946C106.998 79.6724 111 72.1827 111 61.0506C111 54.802 109.872 49.7571 107.946 45.6121C110.091 42.672 111.712 39.3605 112.734 35.8327C113.334 36.6766 113.898 37.5515 114.426 38.4575C118.05 44.6565 120 52.1337 120 61.0444C120 74.7393 115.002 84.3139 109.92 90.4508C107.606 93.2475 104.942 95.7139 102 97.7854V109.135C102.001 110.561 101.73 111.974 101.202 113.292C100.675 114.61 99.9018 115.808 98.9267 116.817C97.9517 117.826 96.7939 118.627 95.5196 119.173C94.2453 119.719 92.8794 120 91.5 120H84C81.6131 120 79.3239 119.019 77.636 117.274C75.9482 115.528 75 113.161 75 110.692H63C63 113.161 62.0518 115.528 60.364 117.274C58.6761 119.019 56.3869 120 54 120H46.5C43.7152 120 41.0445 118.856 39.0754 116.819C37.1062 114.783 36 112.021 36 109.141V104.903C35.0599 104.575 34.1313 104.213 33.216 103.817C28.5988 101.847 24.3906 98.9775 20.82 95.3654C17.0533 91.4222 13.8145 86.9749 11.19 82.1421C10.9955 81.7412 10.7177 81.3897 10.3764 81.1129C10.0351 80.8362 9.63884 80.6409 9.216 80.5411C6.64187 80.0952 4.30376 78.7204 2.61662 76.6609C0.929479 74.6014 0.00243033 71.9904 0 69.2911V58.4134C0 53.1824 3.66 48.7209 8.64 47.8646C9.162 47.7715 9.936 47.2316 10.302 46.1023C11.454 42.5219 13.692 37.204 17.82 32.9348C20.7976 29.9221 24.1417 27.323 27.768 25.2032C28.592 24.7192 29.336 24.3055 30 23.9621V6.25869C30 0.438211 36.78 -1.95079 40.44 1.81577C42.42 3.85728 45.3 6.57515 48.486 8.85246M66.42 38.383C63.48 37.1234 60.996 34.7281 60.408 31.4952C59.3386 25.4719 60.4589 19.2522 63.5539 14.0312C66.6488 8.81015 71.5 4.95594 77.1755 3.20898C82.851 1.46203 88.9505 1.94555 94.3023 4.56665C99.6541 7.18775 103.881 11.7616 106.17 17.4094C108.281 22.6724 108.577 28.5264 107.008 33.9884C105.439 39.4505 102.101 44.1879 97.554 47.4054C94.926 49.2607 91.536 49.1366 88.596 47.877L66.42 38.383ZM92.784 39.4999C95.7475 37.2656 97.8176 33.9866 98.6036 30.2819C99.3895 26.5772 98.8371 22.7031 97.0504 19.3908C95.2637 16.0786 92.3664 13.5573 88.9054 12.3028C85.4444 11.0484 81.6591 11.1476 78.264 12.5818C75.1424 13.9165 72.5478 16.3018 70.9003 19.3514C69.2527 22.4011 68.6487 25.9366 69.186 29.3855L69.312 29.4848C69.4855 29.6036 69.6705 29.7034 69.864 29.7826L92.04 39.2766C92.2779 39.3818 92.528 39.4548 92.784 39.4937M42 45.5376C42 47.1833 41.3679 48.7616 40.2426 49.9253C39.1174 51.089 37.5913 51.7428 36 51.7428C34.4087 51.7428 32.8826 51.089 31.7574 49.9253C30.6321 48.7616 30 47.1833 30 45.5376C30 43.8919 30.6321 42.3136 31.7574 41.1499C32.8826 39.9862 34.4087 39.3324 36 39.3324C37.5913 39.3324 39.1174 39.9862 40.2426 41.1499C41.3679 42.3136 42 43.8919 42 45.5376Z" fill="#1B0E2B"/>
</svg>
