<svg width="170" height="120" viewBox="0 0 170 120" fill="none" xmlns="http://www.w3.org/2000/svg">
<path d="M0 0V10.9091H100.938V92.7273H68.2337C65.8644 83.3509 57.6512 76.3636 47.8125 76.3636C37.9738 76.3636 29.7606 83.3509 27.3913 92.7273H21.25V65.4545H10.625V103.636H27.3913C29.7606 113.013 37.9738 120 47.8125 120C57.6512 120 65.8644 113.013 68.2337 103.636H112.391C114.761 113.013 122.974 120 132.812 120C142.651 120 150.864 113.013 153.234 103.636H170V59.1491L169.665 58.2927L159.04 25.5655L157.887 21.8182H111.562V0H0ZM5.3125 21.8182V32.7273H53.125V21.8182H5.3125ZM111.562 32.7273H150.243L159.375 60.6818V92.7273H153.234C150.864 83.3509 142.651 76.3636 132.812 76.3636C122.974 76.3636 114.761 83.3509 112.391 92.7273H111.562V32.7273ZM10.625 43.6364V54.5454H42.5V43.6364H10.625ZM47.8125 87.2727C53.7466 87.2727 58.4375 92.0891 58.4375 98.1818C58.4375 104.275 53.7466 109.091 47.8125 109.091C41.8784 109.091 37.1875 104.275 37.1875 98.1818C37.1875 92.0891 41.8784 87.2727 47.8125 87.2727ZM132.812 87.2727C138.747 87.2727 143.438 92.0891 143.438 98.1818C143.438 104.275 138.747 109.091 132.812 109.091C126.878 109.091 122.187 104.275 122.187 98.1818C122.187 92.0891 126.878 87.2727 132.812 87.2727Z" fill="#1B0E2B"/>
</svg>
