<svg width="310" height="430" viewBox="0 0 310 430" fill="none" xmlns="http://www.w3.org/2000/svg">
<rect width="310" height="430" fill="white"/>
<path d="M74 138V148.909H169V230.727H138.22C135.99 221.351 128.26 214.364 119 214.364C109.74 214.364 102.01 221.351 99.78 230.727H94V203.455H84V241.636H99.78C102.01 251.013 109.74 258 119 258C128.26 258 135.99 251.013 138.22 241.636H179.78C182.01 251.013 189.74 258 199 258C208.26 258 215.99 251.013 218.22 241.636H234V197.149L233.685 196.293L223.685 163.565L222.6 159.818H179V138H74ZM79 159.818V170.727H124V159.818H79ZM179 170.727H215.405L224 198.682V230.727H218.22C215.99 221.351 208.26 214.364 199 214.364C189.74 214.364 182.01 221.351 179.78 230.727H179V170.727ZM84 181.636V192.545H114V181.636H84ZM119 225.273C124.585 225.273 129 230.089 129 236.182C129 242.275 124.585 247.091 119 247.091C113.415 247.091 109 242.275 109 236.182C109 230.089 113.415 225.273 119 225.273ZM199 225.273C204.585 225.273 209 230.089 209 236.182C209 242.275 204.585 247.091 199 247.091C193.415 247.091 189 242.275 189 236.182C189 230.089 193.415 225.273 199 225.273Z" fill="#1B0E2B"/>
<path d="M47.8963 55V33.1818H62.598V36.9851H52.5092V42.1839H61.8416V45.9872H52.5092V51.1967H62.6406V55H47.8963ZM70.7186 45.5398V55H66.1802V38.6364H70.5055V41.5234H70.6973C71.0595 40.5717 71.6667 39.8189 72.519 39.2649C73.3713 38.7038 74.4047 38.4233 75.6191 38.4233C76.7555 38.4233 77.7463 38.6719 78.5914 39.169C79.4366 39.6662 80.0936 40.3764 80.5623 41.2997C81.0311 42.2159 81.2654 43.3097 81.2654 44.581V55H76.7271V45.3906C76.7342 44.3892 76.4785 43.608 75.9601 43.0469C75.4416 42.4787 74.7278 42.1946 73.8187 42.1946C73.2079 42.1946 72.6681 42.326 72.1994 42.5888C71.7377 42.8516 71.3755 43.2351 71.1127 43.7393C70.8571 44.2365 70.7257 44.8366 70.7186 45.5398ZM93.5462 38.6364V42.0455H83.6918V38.6364H93.5462ZM85.929 34.7159H90.4673V49.9716C90.4673 50.3906 90.5313 50.7173 90.6591 50.9517C90.7869 51.179 90.9645 51.3388 91.1918 51.4311C91.4261 51.5234 91.696 51.5696 92.0014 51.5696C92.2145 51.5696 92.4276 51.5518 92.6406 51.5163C92.8537 51.4737 93.017 51.4418 93.1307 51.4205L93.8445 54.7976C93.6172 54.8686 93.2976 54.9503 92.8857 55.0426C92.4737 55.142 91.973 55.2024 91.3835 55.2237C90.2898 55.2663 89.331 55.1207 88.5071 54.7869C87.6903 54.4531 87.0547 53.9347 86.6001 53.2315C86.1456 52.5284 85.9219 51.6406 85.929 50.5682V34.7159ZM96.5025 55V38.6364H100.902V41.4915H101.073C101.371 40.4759 101.872 39.7088 102.575 39.1903C103.278 38.6648 104.088 38.402 105.004 38.402C105.231 38.402 105.476 38.4162 105.739 38.4446C106.002 38.473 106.233 38.5121 106.431 38.5618V42.5888C106.218 42.5249 105.924 42.468 105.547 42.4183C105.171 42.3686 104.826 42.3438 104.514 42.3438C103.846 42.3438 103.25 42.4893 102.724 42.7805C102.206 43.0646 101.794 43.4624 101.488 43.9737C101.19 44.4851 101.041 45.0746 101.041 45.7422V55H96.5025ZM115.474 55.3196C113.79 55.3196 112.341 54.9787 111.127 54.2969C109.92 53.608 108.989 52.6349 108.336 51.3778C107.682 50.1136 107.356 48.6186 107.356 46.8928C107.356 45.2095 107.682 43.7322 108.336 42.4609C108.989 41.1896 109.909 40.1989 111.095 39.4886C112.288 38.7784 113.687 38.4233 115.292 38.4233C116.372 38.4233 117.377 38.5973 118.307 38.9453C119.245 39.2862 120.062 39.8011 120.758 40.4901C121.461 41.179 122.008 42.0455 122.398 43.0895C122.789 44.1264 122.984 45.3409 122.984 46.733V47.9794H109.167V45.1669H118.712C118.712 44.5135 118.57 43.9347 118.286 43.4304C118.002 42.9261 117.608 42.532 117.104 42.2479C116.606 41.9567 116.028 41.8111 115.367 41.8111C114.678 41.8111 114.067 41.9709 113.535 42.2905C113.009 42.603 112.597 43.0256 112.299 43.5582C112.001 44.0838 111.848 44.6697 111.841 45.3161V47.9901C111.841 48.7997 111.99 49.4993 112.288 50.0888C112.594 50.6783 113.023 51.1328 113.577 51.4524C114.131 51.772 114.788 51.9318 115.548 51.9318C116.052 51.9318 116.514 51.8608 116.933 51.7188C117.352 51.5767 117.711 51.3636 118.009 51.0795C118.307 50.7955 118.535 50.4474 118.691 50.0355L122.888 50.3125C122.675 51.321 122.238 52.2017 121.578 52.9545C120.925 53.7003 120.079 54.2827 119.042 54.7017C118.013 55.1136 116.823 55.3196 115.474 55.3196ZM133.318 61.4773C131.848 61.4773 130.587 61.2749 129.536 60.87C128.492 60.4723 127.661 59.929 127.043 59.2401C126.425 58.5511 126.024 57.777 125.839 56.9176L130.037 56.353C130.165 56.6797 130.367 56.9851 130.644 57.2692C130.921 57.5533 131.287 57.7805 131.741 57.951C132.203 58.1286 132.764 58.2173 133.425 58.2173C134.412 58.2173 135.225 57.9759 135.864 57.4929C136.51 57.017 136.834 56.218 136.834 55.0959V52.1023H136.642C136.443 52.5568 136.145 52.9865 135.747 53.3913C135.349 53.7962 134.838 54.1264 134.213 54.3821C133.588 54.6378 132.842 54.7656 131.976 54.7656C130.747 54.7656 129.628 54.4815 128.62 53.9134C127.618 53.3381 126.819 52.4609 126.223 51.282C125.633 50.0959 125.339 48.5973 125.339 46.7862C125.339 44.9325 125.64 43.3842 126.244 42.1413C126.848 40.8984 127.65 39.968 128.652 39.3501C129.66 38.7322 130.765 38.4233 131.965 38.4233C132.881 38.4233 133.648 38.5795 134.266 38.892C134.884 39.1974 135.381 39.581 135.758 40.0426C136.141 40.4972 136.436 40.9446 136.642 41.3849H136.812V38.6364H141.319V55.1598C141.319 56.5518 140.978 57.7166 140.296 58.6541C139.614 59.5916 138.67 60.2947 137.462 60.7635C136.262 61.2393 134.881 61.4773 133.318 61.4773ZM133.414 51.3565C134.145 51.3565 134.763 51.1754 135.268 50.8132C135.779 50.4439 136.17 49.9183 136.439 49.2365C136.716 48.5476 136.855 47.7237 136.855 46.7649C136.855 45.8061 136.72 44.9751 136.45 44.272C136.18 43.5618 135.79 43.0114 135.278 42.6207C134.767 42.2301 134.145 42.0348 133.414 42.0348C132.668 42.0348 132.04 42.2372 131.528 42.642C131.017 43.0398 130.63 43.5937 130.367 44.304C130.104 45.0142 129.973 45.8345 129.973 46.7649C129.973 47.7095 130.104 48.5263 130.367 49.2152C130.637 49.897 131.024 50.4261 131.528 50.8026C132.04 51.1719 132.668 51.3565 133.414 51.3565ZM149.596 55.3089C148.552 55.3089 147.622 55.1278 146.805 54.7656C145.988 54.3963 145.342 53.853 144.866 53.1357C144.398 52.4112 144.163 51.5092 144.163 50.4297C144.163 49.5206 144.33 48.7571 144.664 48.1392C144.998 47.5213 145.452 47.0241 146.028 46.6477C146.603 46.2713 147.256 45.9872 147.988 45.7955C148.726 45.6037 149.501 45.4688 150.31 45.3906C151.262 45.2912 152.029 45.1989 152.611 45.1136C153.194 45.0213 153.616 44.8864 153.879 44.7088C154.142 44.5312 154.273 44.2685 154.273 43.9205V43.8565C154.273 43.1818 154.06 42.6598 153.634 42.2905C153.215 41.9212 152.618 41.7365 151.844 41.7365C151.028 41.7365 150.378 41.9176 149.895 42.2798C149.412 42.6349 149.092 43.0824 148.936 43.6222L144.738 43.2812C144.952 42.2869 145.371 41.4276 145.996 40.7031C146.621 39.9716 147.427 39.4105 148.414 39.0199C149.408 38.6222 150.559 38.4233 151.866 38.4233C152.775 38.4233 153.645 38.5298 154.476 38.7429C155.314 38.956 156.056 39.2862 156.702 39.7337C157.356 40.1811 157.871 40.7564 158.247 41.4595C158.623 42.1555 158.812 42.9901 158.812 43.9631V55H154.508V52.7308H154.38C154.117 53.2422 153.765 53.6932 153.325 54.0838C152.885 54.4673 152.356 54.7692 151.738 54.9893C151.12 55.2024 150.406 55.3089 149.596 55.3089ZM150.896 52.1768C151.564 52.1768 152.153 52.0455 152.665 51.7827C153.176 51.5128 153.577 51.1506 153.868 50.696C154.16 50.2415 154.305 49.7266 154.305 49.1513V47.4148C154.163 47.5071 153.968 47.5923 153.719 47.6705C153.478 47.7415 153.204 47.8089 152.899 47.8729C152.594 47.9297 152.288 47.983 151.983 48.0327C151.677 48.0753 151.4 48.1143 151.152 48.1499C150.619 48.228 150.154 48.3523 149.756 48.5227C149.358 48.6932 149.05 48.924 148.829 49.2152C148.609 49.4993 148.499 49.8544 148.499 50.2805C148.499 50.8984 148.723 51.3707 149.17 51.6974C149.625 52.017 150.2 52.1768 150.896 52.1768ZM169.276 55V38.6364H173.676V41.4915H173.846C174.145 40.4759 174.645 39.7088 175.348 39.1903C176.051 38.6648 176.861 38.402 177.777 38.402C178.005 38.402 178.25 38.4162 178.512 38.4446C178.775 38.473 179.006 38.5121 179.205 38.5618V42.5888C178.992 42.5249 178.697 42.468 178.321 42.4183C177.944 42.3686 177.6 42.3438 177.287 42.3438C176.62 42.3438 176.023 42.4893 175.498 42.7805C174.979 43.0646 174.567 43.4624 174.262 43.9737C173.963 44.4851 173.814 45.0746 173.814 45.7422V55H169.276ZM185.749 55.3089C184.705 55.3089 183.774 55.1278 182.958 54.7656C182.141 54.3963 181.494 53.853 181.019 53.1357C180.55 52.4112 180.316 51.5092 180.316 50.4297C180.316 49.5206 180.482 48.7571 180.816 48.1392C181.15 47.5213 181.605 47.0241 182.18 46.6477C182.755 46.2713 183.409 45.9872 184.14 45.7955C184.879 45.6037 185.653 45.4688 186.463 45.3906C187.414 45.2912 188.181 45.1989 188.764 45.1136C189.346 45.0213 189.769 44.8864 190.031 44.7088C190.294 44.5312 190.426 44.2685 190.426 43.9205V43.8565C190.426 43.1818 190.213 42.6598 189.786 42.2905C189.367 41.9212 188.771 41.7365 187.997 41.7365C187.18 41.7365 186.53 41.9176 186.047 42.2798C185.564 42.6349 185.244 43.0824 185.088 43.6222L180.891 43.2812C181.104 42.2869 181.523 41.4276 182.148 40.7031C182.773 39.9716 183.579 39.4105 184.566 39.0199C185.561 38.6222 186.711 38.4233 188.018 38.4233C188.927 38.4233 189.797 38.5298 190.628 38.7429C191.466 38.956 192.208 39.2862 192.855 39.7337C193.508 40.1811 194.023 40.7564 194.399 41.4595C194.776 42.1555 194.964 42.9901 194.964 43.9631V55H190.66V52.7308H190.532C190.269 53.2422 189.918 53.6932 189.477 54.0838C189.037 54.4673 188.508 54.7692 187.89 54.9893C187.272 55.2024 186.558 55.3089 185.749 55.3089ZM187.048 52.1768C187.716 52.1768 188.306 52.0455 188.817 51.7827C189.328 51.5128 189.73 51.1506 190.021 50.696C190.312 50.2415 190.458 49.7266 190.458 49.1513V47.4148C190.316 47.5071 190.12 47.5923 189.872 47.6705C189.63 47.7415 189.357 47.8089 189.051 47.8729C188.746 47.9297 188.441 47.983 188.135 48.0327C187.83 48.0753 187.553 48.1143 187.304 48.1499C186.771 48.228 186.306 48.3523 185.909 48.5227C185.511 48.6932 185.202 48.924 184.982 49.2152C184.762 49.4993 184.651 49.8544 184.651 50.2805C184.651 50.8984 184.875 51.3707 185.323 51.6974C185.777 52.017 186.352 52.1768 187.048 52.1768ZM186.558 36.527L188.817 31.6797H193.014L189.765 36.527H186.558ZM198.485 61.1364V38.6364H202.959V41.3849H203.162C203.361 40.9446 203.648 40.4972 204.025 40.0426C204.408 39.581 204.905 39.1974 205.516 38.892C206.134 38.5795 206.901 38.4233 207.817 38.4233C209.01 38.4233 210.111 38.7358 211.12 39.3608C212.128 39.9787 212.934 40.9126 213.538 42.1626C214.142 43.4055 214.444 44.9645 214.444 46.8395C214.444 48.6648 214.149 50.206 213.559 51.4631C212.977 52.7131 212.182 53.6612 211.173 54.3075C210.172 54.9467 209.05 55.2663 207.807 55.2663C206.926 55.2663 206.177 55.1207 205.559 54.8295C204.948 54.5384 204.447 54.1726 204.057 53.7322C203.666 53.2848 203.368 52.8338 203.162 52.3793H203.023V61.1364H198.485ZM202.927 46.8182C202.927 47.7912 203.062 48.6399 203.332 49.3643C203.602 50.0888 203.993 50.6534 204.504 51.0582C205.015 51.456 205.637 51.6548 206.368 51.6548C207.107 51.6548 207.732 51.4524 208.243 51.0476C208.755 50.6357 209.142 50.0675 209.405 49.343C209.675 48.6115 209.809 47.7699 209.809 46.8182C209.809 45.8736 209.678 45.0426 209.415 44.3253C209.153 43.608 208.765 43.0469 208.254 42.642C207.743 42.2372 207.114 42.0348 206.368 42.0348C205.63 42.0348 205.005 42.2301 204.493 42.6207C203.989 43.0114 203.602 43.5653 203.332 44.2827C203.062 45 202.927 45.8452 202.927 46.8182ZM217.469 55V38.6364H222.008V55H217.469ZM219.749 36.527C219.074 36.527 218.496 36.3033 218.013 35.8558C217.537 35.4013 217.299 34.858 217.299 34.2259C217.299 33.6009 217.537 33.0646 218.013 32.6172C218.496 32.1626 219.074 31.9354 219.749 31.9354C220.424 31.9354 220.999 32.1626 221.475 32.6172C221.958 33.0646 222.199 33.6009 222.199 34.2259C222.199 34.858 221.958 35.4013 221.475 35.8558C220.999 36.3033 220.424 36.527 219.749 36.527ZM231.673 55.2663C230.43 55.2663 229.304 54.9467 228.296 54.3075C227.294 53.6612 226.499 52.7131 225.909 51.4631C225.327 50.206 225.036 48.6648 225.036 46.8395C225.036 44.9645 225.338 43.4055 225.941 42.1626C226.545 40.9126 227.348 39.9787 228.349 39.3608C229.358 38.7358 230.462 38.4233 231.662 38.4233C232.578 38.4233 233.342 38.5795 233.953 38.892C234.571 39.1974 235.068 39.581 235.444 40.0426C235.828 40.4972 236.119 40.9446 236.318 41.3849H236.456V33.1818H240.984V55H236.51V52.3793H236.318C236.105 52.8338 235.803 53.2848 235.412 53.7322C235.029 54.1726 234.528 54.5384 233.91 54.8295C233.299 55.1207 232.554 55.2663 231.673 55.2663ZM233.111 51.6548C233.843 51.6548 234.461 51.456 234.965 51.0582C235.476 50.6534 235.867 50.0888 236.137 49.3643C236.414 48.6399 236.552 47.7912 236.552 46.8182C236.552 45.8452 236.417 45 236.147 44.2827C235.877 43.5653 235.487 43.0114 234.975 42.6207C234.464 42.2301 233.843 42.0348 233.111 42.0348C232.365 42.0348 231.737 42.2372 231.225 42.642C230.714 43.0469 230.327 43.608 230.064 44.3253C229.801 45.0426 229.67 45.8736 229.67 46.8182C229.67 47.7699 229.801 48.6115 230.064 49.343C230.334 50.0675 230.721 50.6357 231.225 51.0476C231.737 51.4524 232.365 51.6548 233.111 51.6548ZM249.382 55.3089C248.338 55.3089 247.407 55.1278 246.59 54.7656C245.774 54.3963 245.127 53.853 244.651 53.1357C244.183 52.4112 243.948 51.5092 243.948 50.4297C243.948 49.5206 244.115 48.7571 244.449 48.1392C244.783 47.5213 245.237 47.0241 245.813 46.6477C246.388 46.2713 247.041 45.9872 247.773 45.7955C248.512 45.6037 249.286 45.4688 250.095 45.3906C251.047 45.2912 251.814 45.1989 252.396 45.1136C252.979 45.0213 253.401 44.8864 253.664 44.7088C253.927 44.5312 254.058 44.2685 254.058 43.9205V43.8565C254.058 43.1818 253.845 42.6598 253.419 42.2905C253 41.9212 252.404 41.7365 251.629 41.7365C250.813 41.7365 250.163 41.9176 249.68 42.2798C249.197 42.6349 248.877 43.0824 248.721 43.6222L244.524 43.2812C244.737 42.2869 245.156 41.4276 245.781 40.7031C246.406 39.9716 247.212 39.4105 248.199 39.0199C249.193 38.6222 250.344 38.4233 251.651 38.4233C252.56 38.4233 253.43 38.5298 254.261 38.7429C255.099 38.956 255.841 39.2862 256.487 39.7337C257.141 40.1811 257.656 40.7564 258.032 41.4595C258.409 42.1555 258.597 42.9901 258.597 43.9631V55H254.293V52.7308H254.165C253.902 53.2422 253.551 53.6932 253.11 54.0838C252.67 54.4673 252.141 54.7692 251.523 54.9893C250.905 55.2024 250.191 55.3089 249.382 55.3089ZM250.681 52.1768C251.349 52.1768 251.938 52.0455 252.45 51.7827C252.961 51.5128 253.362 51.1506 253.654 50.696C253.945 50.2415 254.09 49.7266 254.09 49.1513V47.4148C253.948 47.5071 253.753 47.5923 253.504 47.6705C253.263 47.7415 252.99 47.8089 252.684 47.8729C252.379 47.9297 252.073 47.983 251.768 48.0327C251.463 48.0753 251.186 48.1143 250.937 48.1499C250.404 48.228 249.939 48.3523 249.541 48.5227C249.144 48.6932 248.835 48.924 248.615 49.2152C248.394 49.4993 248.284 49.8544 248.284 50.2805C248.284 50.8984 248.508 51.3707 248.955 51.6974C249.41 52.017 249.985 52.1768 250.681 52.1768Z" fill="black"/>
<path fill-rule="evenodd" clip-rule="evenodd" d="M110 339C110 327.065 114.741 315.619 123.18 307.18C131.619 298.741 143.065 294 155 294C166.935 294 178.381 298.741 186.82 307.18C195.259 315.619 200 327.065 200 339C200 350.935 195.259 362.381 186.82 370.82C178.381 379.259 166.935 384 155 384C143.065 384 131.619 379.259 123.18 370.82C114.741 362.381 110 350.935 110 339ZM152.432 358.26L178.34 325.872L173.66 322.128L151.568 349.734L135.92 336.696L132.08 341.304L152.432 358.26Z" fill="#B830AA"/>
</svg>
