<svg width="310" height="430" viewBox="0 0 310 430" fill="none" xmlns="http://www.w3.org/2000/svg">
<rect width="310" height="430" fill="white"/>
<path d="M207.425 184.511C205.405 182.4 203.316 180.225 202.529 178.312C201.8 176.561 201.757 173.657 201.714 170.845C201.634 165.616 201.548 159.691 197.429 155.571C193.309 151.452 187.384 151.366 182.155 151.286C179.343 151.243 176.439 151.2 174.687 150.471C172.78 149.684 170.6 147.595 168.489 145.575C164.793 142.023 160.593 138 155 138C149.407 138 145.212 142.023 141.511 145.575C139.4 147.595 137.225 149.684 135.312 150.471C133.571 151.2 130.657 151.243 127.845 151.286C122.616 151.366 116.691 151.452 112.571 155.571C108.452 159.691 108.393 165.616 108.286 170.845C108.243 173.657 108.2 176.561 107.471 178.312C106.684 180.22 104.595 182.4 102.575 184.511C99.0232 188.212 95 192.407 95 198C95 203.593 99.0232 207.787 102.575 211.489C104.595 213.6 106.684 215.775 107.471 217.687C108.2 219.439 108.243 222.343 108.286 225.155C108.366 230.384 108.452 236.309 112.571 240.429C116.691 244.548 122.616 244.634 127.845 244.714C130.657 244.757 133.561 244.8 135.312 245.529C137.22 246.316 139.4 248.405 141.511 250.425C145.207 253.977 149.407 258 155 258C160.593 258 164.787 253.977 168.489 250.425C170.6 248.405 172.775 246.316 174.687 245.529C176.439 244.8 179.343 244.757 182.155 244.714C187.384 244.634 193.309 244.548 197.429 240.429C201.548 236.309 201.634 230.384 201.714 225.155C201.757 222.343 201.8 219.439 202.529 217.687C203.316 215.78 205.405 213.6 207.425 211.489C210.977 207.787 215 203.593 215 198C215 192.407 210.977 188.212 207.425 184.511ZM201.237 205.559C198.671 208.237 196.014 211.007 194.605 214.409C193.255 217.677 193.196 221.411 193.143 225.027C193.089 228.777 193.03 232.704 191.364 234.364C189.698 236.025 185.798 236.089 182.027 236.143C178.411 236.196 174.677 236.255 171.409 237.605C168.007 239.014 165.237 241.671 162.559 244.237C159.88 246.804 157.143 249.429 155 249.429C152.857 249.429 150.098 246.793 147.441 244.237C144.784 241.682 141.993 239.014 138.591 237.605C135.323 236.255 131.589 236.196 127.973 236.143C124.223 236.089 120.296 236.03 118.636 234.364C116.975 232.698 116.911 228.798 116.857 225.027C116.804 221.411 116.745 217.677 115.395 214.409C113.986 211.007 111.329 208.237 108.762 205.559C106.196 202.88 103.571 200.143 103.571 198C103.571 195.857 106.207 193.104 108.762 190.441C111.318 187.779 113.986 184.993 115.395 181.591C116.745 178.323 116.804 174.589 116.857 170.973C116.911 167.223 116.97 163.296 118.636 161.636C120.302 159.975 124.202 159.911 127.973 159.857C131.589 159.804 135.323 159.745 138.591 158.395C141.993 156.986 144.762 154.329 147.441 151.762C150.12 149.196 152.857 146.571 155 146.571C157.143 146.571 159.902 149.207 162.559 151.762C165.216 154.318 168.007 156.986 171.409 158.395C174.677 159.745 178.411 159.804 182.027 159.857C185.777 159.911 189.704 159.97 191.364 161.636C193.025 163.302 193.089 167.202 193.143 170.973C193.196 174.589 193.255 178.323 194.605 181.591C196.014 184.993 198.671 187.762 201.237 190.441C203.804 193.12 206.429 195.857 206.429 198C206.429 200.143 203.793 202.896 201.237 205.559ZM150.714 180.857C150.714 178.314 149.96 175.828 148.547 173.714C147.135 171.6 145.127 169.952 142.777 168.979C140.428 168.006 137.843 167.751 135.349 168.247C132.855 168.743 130.564 169.968 128.766 171.766C126.968 173.564 125.743 175.855 125.247 178.349C124.751 180.843 125.006 183.428 125.979 185.777C126.952 188.127 128.6 190.135 130.714 191.547C132.828 192.96 135.314 193.714 137.857 193.714C141.267 193.714 144.537 192.36 146.949 189.949C149.36 187.537 150.714 184.267 150.714 180.857ZM133.571 180.857C133.571 180.01 133.823 179.181 134.294 178.476C134.765 177.771 135.434 177.222 136.217 176.898C137 176.573 137.862 176.488 138.693 176.654C139.525 176.819 140.288 177.227 140.888 177.827C141.487 178.426 141.895 179.19 142.061 180.021C142.226 180.852 142.141 181.714 141.817 182.497C141.492 183.28 140.943 183.95 140.238 184.421C139.533 184.892 138.705 185.143 137.857 185.143C136.72 185.143 135.63 184.691 134.827 183.888C134.023 183.084 133.571 181.994 133.571 180.857ZM172.143 202.286C169.6 202.286 167.114 203.04 165 204.453C162.885 205.865 161.238 207.873 160.264 210.223C159.291 212.572 159.037 215.157 159.533 217.651C160.029 220.145 161.253 222.436 163.051 224.234C164.85 226.032 167.141 227.257 169.635 227.753C172.129 228.249 174.714 227.994 177.063 227.021C179.412 226.048 181.42 224.4 182.833 222.286C184.246 220.172 185 217.686 185 215.143C185 211.733 183.645 208.463 181.234 206.051C178.823 203.64 175.553 202.286 172.143 202.286ZM172.143 219.429C171.295 219.429 170.467 219.177 169.762 218.706C169.057 218.235 168.508 217.566 168.183 216.783C167.859 216 167.774 215.138 167.939 214.307C168.105 213.475 168.513 212.712 169.112 212.112C169.712 211.513 170.475 211.105 171.307 210.939C172.138 210.774 173 210.859 173.783 211.183C174.566 211.508 175.235 212.057 175.706 212.762C176.177 213.467 176.429 214.295 176.429 215.143C176.429 216.279 175.977 217.37 175.173 218.173C174.37 218.977 173.279 219.429 172.143 219.429ZM179.461 179.604L136.604 222.461C136.205 222.859 135.733 223.175 135.212 223.39C134.692 223.606 134.135 223.717 133.571 223.717C133.008 223.717 132.451 223.606 131.93 223.39C131.41 223.175 130.937 222.859 130.539 222.461C130.141 222.063 129.825 221.59 129.61 221.07C129.394 220.549 129.283 219.992 129.283 219.429C129.283 218.865 129.394 218.308 129.61 217.788C129.825 217.267 130.141 216.795 130.539 216.396L173.396 173.539C173.795 173.141 174.267 172.825 174.788 172.61C175.308 172.394 175.865 172.283 176.429 172.283C176.992 172.283 177.549 172.394 178.07 172.61C178.59 172.825 179.063 173.141 179.461 173.539C179.859 173.937 180.175 174.41 180.39 174.93C180.606 175.451 180.717 176.008 180.717 176.571C180.717 177.135 180.606 177.692 180.39 178.212C180.175 178.733 179.859 179.205 179.461 179.604Z" fill="#1B0E2B"/>
<path d="M77.035 55H69.3006V33.1818H77.0989C79.2935 33.1818 81.1827 33.6186 82.7665 34.4922C84.3503 35.3587 85.5684 36.6051 86.4206 38.2315C87.28 39.858 87.7097 41.804 87.7097 44.0696C87.7097 46.3423 87.28 48.2955 86.4206 49.929C85.5684 51.5625 84.3432 52.8161 82.7452 53.6896C81.1543 54.5632 79.2509 55 77.035 55ZM73.9135 51.0476H76.8432C78.2069 51.0476 79.3539 50.8061 80.2843 50.3232C81.2218 49.8331 81.9249 49.0767 82.3936 48.054C82.8695 47.0241 83.1074 45.696 83.1074 44.0696C83.1074 42.4574 82.8695 41.1399 82.3936 40.1172C81.9249 39.0945 81.2253 38.3416 80.2949 37.8587C79.3645 37.3757 78.2175 37.1342 76.8539 37.1342H73.9135V51.0476ZM98.4989 55.3196C96.8157 55.3196 95.3668 54.9787 94.1523 54.2969C92.945 53.608 92.0146 52.6349 91.3612 51.3778C90.7077 50.1136 90.381 48.6186 90.381 46.8928C90.381 45.2095 90.7077 43.7322 91.3612 42.4609C92.0146 41.1896 92.9343 40.1989 94.1204 39.4886C95.3136 38.7784 96.7127 38.4233 98.3178 38.4233C99.3974 38.4233 100.402 38.5973 101.333 38.9453C102.27 39.2862 103.087 39.8011 103.783 40.4901C104.486 41.179 105.033 42.0455 105.424 43.0895C105.814 44.1264 106.01 45.3409 106.01 46.733V47.9794H92.1921V45.1669H101.738C101.738 44.5135 101.596 43.9347 101.311 43.4304C101.027 42.9261 100.633 42.532 100.129 42.2479C99.6317 41.9567 99.0529 41.8111 98.3924 41.8111C97.7035 41.8111 97.0927 41.9709 96.56 42.2905C96.0344 42.603 95.6225 43.0256 95.3242 43.5582C95.0259 44.0838 94.8732 44.6697 94.8661 45.3161V47.9901C94.8661 48.7997 95.0153 49.4993 95.3136 50.0888C95.619 50.6783 96.0487 51.1328 96.6026 51.4524C97.1566 51.772 97.8136 51.9318 98.5735 51.9318C99.0778 51.9318 99.5394 51.8608 99.9585 51.7188C100.377 51.5767 100.736 51.3636 101.034 51.0795C101.333 50.7955 101.56 50.4474 101.716 50.0355L105.914 50.3125C105.701 51.321 105.264 52.2017 104.603 52.9545C103.95 53.7003 103.105 54.2827 102.068 54.7017C101.038 55.1136 99.8484 55.3196 98.4989 55.3196ZM122.586 43.3026L118.431 43.5582C118.36 43.2031 118.208 42.8835 117.973 42.5994C117.739 42.3082 117.43 42.0774 117.047 41.907C116.67 41.7294 116.219 41.6406 115.694 41.6406C114.99 41.6406 114.397 41.7898 113.914 42.0881C113.431 42.3793 113.19 42.7699 113.19 43.2599C113.19 43.6506 113.346 43.9808 113.659 44.2507C113.971 44.5206 114.507 44.7372 115.267 44.9006L118.229 45.4972C119.82 45.8239 121.006 46.3494 121.787 47.0739C122.569 47.7983 122.959 48.75 122.959 49.929C122.959 51.0014 122.643 51.9425 122.011 52.7521C121.386 53.5618 120.527 54.1939 119.433 54.6484C118.346 55.0959 117.093 55.3196 115.672 55.3196C113.506 55.3196 111.78 54.8686 110.495 53.9666C109.216 53.0575 108.467 51.8217 108.247 50.2592L112.711 50.0249C112.846 50.6854 113.172 51.1896 113.691 51.5376C114.209 51.8786 114.873 52.049 115.683 52.049C116.478 52.049 117.118 51.8963 117.6 51.5909C118.091 51.2784 118.339 50.8771 118.346 50.3871C118.339 49.9751 118.165 49.6378 117.824 49.375C117.483 49.1051 116.958 48.8991 116.248 48.7571L113.414 48.1925C111.816 47.8729 110.626 47.3189 109.845 46.5305C109.071 45.7422 108.684 44.7372 108.684 43.5156C108.684 42.4645 108.968 41.5589 109.536 40.799C110.111 40.0391 110.917 39.4531 111.954 39.0412C112.998 38.6293 114.22 38.4233 115.619 38.4233C117.686 38.4233 119.312 38.8601 120.498 39.7337C121.691 40.6072 122.387 41.7969 122.586 43.3026ZM133.21 55.3196C131.534 55.3196 130.093 54.9645 128.885 54.2543C127.685 53.5369 126.762 52.5426 126.115 51.2713C125.476 50 125.156 48.5369 125.156 46.8821C125.156 45.206 125.48 43.7358 126.126 42.4716C126.779 41.2003 127.706 40.2095 128.906 39.4993C130.107 38.782 131.534 38.4233 133.189 38.4233C134.617 38.4233 135.867 38.6825 136.939 39.201C138.012 39.7195 138.86 40.4474 139.485 41.3849C140.11 42.3224 140.455 43.4233 140.519 44.6875H136.236C136.115 43.8707 135.796 43.2138 135.277 42.7166C134.766 42.2124 134.095 41.9602 133.264 41.9602C132.561 41.9602 131.946 42.152 131.421 42.5355C130.902 42.9119 130.497 43.4624 130.206 44.1868C129.915 44.9112 129.769 45.7884 129.769 46.8182C129.769 47.8622 129.911 48.75 130.195 49.4815C130.487 50.2131 130.895 50.7706 131.421 51.1541C131.946 51.5376 132.561 51.7294 133.264 51.7294C133.782 51.7294 134.247 51.6229 134.659 51.4098C135.078 51.1967 135.423 50.8878 135.693 50.483C135.97 50.071 136.151 49.5774 136.236 49.0021H140.519C140.448 50.2521 140.107 51.353 139.496 52.3047C138.892 53.2493 138.058 53.9879 136.992 54.5206C135.927 55.0533 134.666 55.3196 133.21 55.3196ZM153.918 48.0327V38.6364H158.456V55H154.099V52.0277H153.929C153.559 52.9865 152.945 53.7571 152.086 54.3395C151.233 54.9219 150.193 55.2131 148.964 55.2131C147.87 55.2131 146.908 54.9645 146.077 54.4673C145.246 53.9702 144.596 53.2635 144.127 52.3473C143.666 51.4311 143.431 50.3338 143.424 49.0554V38.6364H147.963V48.2457C147.97 49.2116 148.229 49.9751 148.74 50.5362C149.252 51.0973 149.937 51.3778 150.797 51.3778C151.343 51.3778 151.855 51.2536 152.331 51.005C152.806 50.7493 153.19 50.3729 153.481 49.8757C153.779 49.3786 153.925 48.7642 153.918 48.0327ZM169.544 55.3196C167.861 55.3196 166.412 54.9787 165.197 54.2969C163.99 53.608 163.059 52.6349 162.406 51.3778C161.753 50.1136 161.426 48.6186 161.426 46.8928C161.426 45.2095 161.753 43.7322 162.406 42.4609C163.059 41.1896 163.979 40.1989 165.165 39.4886C166.358 38.7784 167.758 38.4233 169.363 38.4233C170.442 38.4233 171.447 38.5973 172.378 38.9453C173.315 39.2862 174.132 39.8011 174.828 40.4901C175.531 41.179 176.078 42.0455 176.469 43.0895C176.859 44.1264 177.055 45.3409 177.055 46.733V47.9794H163.237V45.1669H172.782C172.782 44.5135 172.64 43.9347 172.356 43.4304C172.072 42.9261 171.678 42.532 171.174 42.2479C170.677 41.9567 170.098 41.8111 169.437 41.8111C168.748 41.8111 168.138 41.9709 167.605 42.2905C167.079 42.603 166.667 43.0256 166.369 43.5582C166.071 44.0838 165.918 44.6697 165.911 45.3161V47.9901C165.911 48.7997 166.06 49.4993 166.358 50.0888C166.664 50.6783 167.094 51.1328 167.648 51.4524C168.202 51.772 168.858 51.9318 169.618 51.9318C170.123 51.9318 170.584 51.8608 171.003 51.7188C171.422 51.5767 171.781 51.3636 172.079 51.0795C172.378 50.7955 172.605 50.4474 172.761 50.0355L176.959 50.3125C176.746 51.321 176.309 52.2017 175.648 52.9545C174.995 53.7003 174.15 54.2827 173.113 54.7017C172.083 55.1136 170.893 55.3196 169.544 55.3196ZM184.555 45.5398V55H180.016V38.6364H184.341V41.5234H184.533C184.895 40.5717 185.503 39.8189 186.355 39.2649C187.207 38.7038 188.241 38.4233 189.455 38.4233C190.591 38.4233 191.582 38.6719 192.427 39.169C193.273 39.6662 193.93 40.3764 194.398 41.2997C194.867 42.2159 195.101 43.3097 195.101 44.581V55H190.563V45.3906C190.57 44.3892 190.314 43.608 189.796 43.0469C189.278 42.4787 188.564 42.1946 187.655 42.1946C187.044 42.1946 186.504 42.326 186.035 42.5888C185.574 42.8516 185.211 43.2351 184.949 43.7393C184.693 44.2365 184.562 44.8366 184.555 45.5398ZM207.382 38.6364V42.0455H197.528V38.6364H207.382ZM199.765 34.7159H204.303V49.9716C204.303 50.3906 204.367 50.7173 204.495 50.9517C204.623 51.179 204.8 51.3388 205.028 51.4311C205.262 51.5234 205.532 51.5696 205.837 51.5696C206.05 51.5696 206.263 51.5518 206.477 51.5163C206.69 51.4737 206.853 51.4418 206.967 51.4205L207.68 54.7976C207.453 54.8686 207.134 54.9503 206.722 55.0426C206.31 55.142 205.809 55.2024 205.219 55.2237C204.126 55.2663 203.167 55.1207 202.343 54.7869C201.526 54.4531 200.891 53.9347 200.436 53.2315C199.982 52.5284 199.758 51.6406 199.765 50.5682V34.7159ZM217.556 55.3196C215.901 55.3196 214.47 54.968 213.263 54.2649C212.063 53.5547 211.136 52.5675 210.482 51.3033C209.829 50.032 209.502 48.5582 209.502 46.8821C209.502 45.1918 209.829 43.7145 210.482 42.4503C211.136 41.179 212.063 40.1918 213.263 39.4886C214.47 38.7784 215.901 38.4233 217.556 38.4233C219.211 38.4233 220.638 38.7784 221.839 39.4886C223.046 40.1918 223.977 41.179 224.63 42.4503C225.283 43.7145 225.61 45.1918 225.61 46.8821C225.61 48.5582 225.283 50.032 224.63 51.3033C223.977 52.5675 223.046 53.5547 221.839 54.2649C220.638 54.968 219.211 55.3196 217.556 55.3196ZM217.577 51.804C218.33 51.804 218.959 51.5909 219.463 51.1648C219.967 50.7315 220.347 50.142 220.603 49.3963C220.866 48.6506 220.997 47.8018 220.997 46.8501C220.997 45.8984 220.866 45.0497 220.603 44.304C220.347 43.5582 219.967 42.9687 219.463 42.5355C218.959 42.1023 218.33 41.8857 217.577 41.8857C216.817 41.8857 216.178 42.1023 215.66 42.5355C215.148 42.9687 214.761 43.5582 214.499 44.304C214.243 45.0497 214.115 45.8984 214.115 46.8501C214.115 47.8018 214.243 48.6506 214.499 49.3963C214.761 50.142 215.148 50.7315 215.66 51.1648C216.178 51.5909 216.817 51.804 217.577 51.804ZM242.176 43.3026L238.021 43.5582C237.95 43.2031 237.798 42.8835 237.563 42.5994C237.329 42.3082 237.02 42.0774 236.636 41.907C236.26 41.7294 235.809 41.6406 235.283 41.6406C234.58 41.6406 233.987 41.7898 233.504 42.0881C233.021 42.3793 232.78 42.7699 232.78 43.2599C232.78 43.6506 232.936 43.9808 233.249 44.2507C233.561 44.5206 234.097 44.7372 234.857 44.9006L237.819 45.4972C239.41 45.8239 240.596 46.3494 241.377 47.0739C242.158 47.7983 242.549 48.75 242.549 49.929C242.549 51.0014 242.233 51.9425 241.601 52.7521C240.976 53.5618 240.116 54.1939 239.023 54.6484C237.936 55.0959 236.683 55.3196 235.262 55.3196C233.096 55.3196 231.37 54.8686 230.085 53.9666C228.806 53.0575 228.057 51.8217 227.837 50.2592L232.3 50.0249C232.435 50.6854 232.762 51.1896 233.281 51.5376C233.799 51.8786 234.463 52.049 235.273 52.049C236.068 52.049 236.707 51.8963 237.19 51.5909C237.68 51.2784 237.929 50.8771 237.936 50.3871C237.929 49.9751 237.755 49.6378 237.414 49.375C237.073 49.1051 236.548 48.8991 235.837 48.7571L233.004 48.1925C231.406 47.8729 230.216 47.3189 229.435 46.5305C228.661 45.7422 228.273 44.7372 228.273 43.5156C228.273 42.4645 228.558 41.5589 229.126 40.799C229.701 40.0391 230.507 39.4531 231.544 39.0412C232.588 38.6293 233.81 38.4233 235.209 38.4233C237.276 38.4233 238.902 38.8601 240.088 39.7337C241.281 40.6072 241.977 41.7969 242.176 43.3026ZM85.8573 91.3196C84.1741 91.3196 82.7252 90.9787 81.5107 90.2969C80.3034 89.608 79.373 88.6349 78.7195 87.3778C78.0661 86.1136 77.7394 84.6186 77.7394 82.8928C77.7394 81.2095 78.0661 79.7322 78.7195 78.4609C79.373 77.1896 80.2927 76.1989 81.4788 75.4886C82.672 74.7784 84.0711 74.4233 85.6762 74.4233C86.7558 74.4233 87.7607 74.5973 88.6911 74.9453C89.6286 75.2862 90.4454 75.8011 91.1414 76.4901C91.8445 77.179 92.3914 78.0455 92.782 79.0895C93.1727 80.1264 93.368 81.3409 93.368 82.733V83.9794H79.5505V81.1669H89.096C89.096 80.5135 88.9539 79.9347 88.6698 79.4304C88.3857 78.9261 87.9916 78.532 87.4873 78.2479C86.9901 77.9567 86.4113 77.8111 85.7508 77.8111C85.0619 77.8111 84.4511 77.9709 83.9184 78.2905C83.3928 78.603 82.9809 79.0256 82.6826 79.5582C82.3843 80.0838 82.2316 80.6697 82.2245 81.3161V83.9901C82.2245 84.7997 82.3737 85.4993 82.672 86.0888C82.9774 86.6783 83.407 87.1328 83.961 87.4524C84.515 87.772 85.172 87.9318 85.9319 87.9318C86.4362 87.9318 86.8978 87.8608 87.3169 87.7188C87.7359 87.5767 88.0945 87.3636 88.3928 87.0795C88.6911 86.7955 88.9184 86.4474 89.0747 86.0355L93.2721 86.3125C93.059 87.321 92.6222 88.2017 91.9617 88.9545C91.3083 89.7003 90.4632 90.2827 89.4262 90.7017C88.3964 91.1136 87.2068 91.3196 85.8573 91.3196ZM109.945 79.3026L105.79 79.5582C105.719 79.2031 105.566 78.8835 105.332 78.5994C105.097 78.3082 104.788 78.0774 104.405 77.907C104.028 77.7294 103.578 77.6406 103.052 77.6406C102.349 77.6406 101.756 77.7898 101.273 78.0881C100.79 78.3793 100.548 78.7699 100.548 79.2599C100.548 79.6506 100.705 79.9808 101.017 80.2507C101.33 80.5206 101.866 80.7372 102.626 80.9006L105.587 81.4972C107.178 81.8239 108.364 82.3494 109.146 83.0739C109.927 83.7983 110.318 84.75 110.318 85.929C110.318 87.0014 110.002 87.9425 109.369 88.7521C108.744 89.5618 107.885 90.1939 106.791 90.6484C105.705 91.0959 104.451 91.3196 103.031 91.3196C100.864 91.3196 99.1386 90.8686 97.8531 89.9666C96.5747 89.0575 95.8254 87.8217 95.6052 86.2592L100.069 86.0249C100.204 86.6854 100.531 87.1896 101.049 87.5376C101.568 87.8786 102.232 88.049 103.041 88.049C103.837 88.049 104.476 87.8963 104.959 87.5909C105.449 87.2784 105.698 86.8771 105.705 86.3871C105.698 85.9751 105.524 85.6378 105.183 85.375C104.842 85.1051 104.316 84.8991 103.606 84.7571L100.772 84.1925C99.1741 83.8729 97.9845 83.3189 97.2032 82.5305C96.4291 81.7422 96.042 80.7372 96.042 79.5156C96.042 78.4645 96.3261 77.5589 96.8943 76.799C97.4695 76.0391 98.2757 75.4531 99.3126 75.0412C100.357 74.6293 101.578 74.4233 102.977 74.4233C105.044 74.4233 106.671 74.8601 107.857 75.7337C109.05 76.6072 109.746 77.7969 109.945 79.3026ZM113.175 97.1364V74.6364H117.65V77.3849H117.852C118.051 76.9446 118.339 76.4972 118.715 76.0426C119.099 75.581 119.596 75.1974 120.207 74.892C120.824 74.5795 121.592 74.4233 122.508 74.4233C123.701 74.4233 124.802 74.7358 125.81 75.3608C126.819 75.9787 127.625 76.9126 128.229 78.1626C128.832 79.4055 129.134 80.9645 129.134 82.8395C129.134 84.6648 128.839 86.206 128.25 87.4631C127.668 88.7131 126.872 89.6612 125.864 90.3075C124.862 90.9467 123.74 91.2663 122.497 91.2663C121.616 91.2663 120.867 91.1207 120.249 90.8295C119.638 90.5384 119.138 90.1726 118.747 89.7322C118.356 89.2848 118.058 88.8338 117.852 88.3793H117.714V97.1364H113.175ZM117.618 82.8182C117.618 83.7912 117.753 84.6399 118.023 85.3643C118.293 86.0888 118.683 86.6534 119.195 87.0582C119.706 87.456 120.327 87.6548 121.059 87.6548C121.797 87.6548 122.422 87.4524 122.934 87.0476C123.445 86.6357 123.832 86.0675 124.095 85.343C124.365 84.6115 124.5 83.7699 124.5 82.8182C124.5 81.8736 124.369 81.0426 124.106 80.3253C123.843 79.608 123.456 79.0469 122.945 78.642C122.433 78.2372 121.805 78.0348 121.059 78.0348C120.32 78.0348 119.695 78.2301 119.184 78.6207C118.68 79.0114 118.293 79.5653 118.023 80.2827C117.753 81 117.618 81.8452 117.618 82.8182ZM139.617 91.3196C137.934 91.3196 136.485 90.9787 135.271 90.2969C134.063 89.608 133.133 88.6349 132.479 87.3778C131.826 86.1136 131.499 84.6186 131.499 82.8928C131.499 81.2095 131.826 79.7322 132.479 78.4609C133.133 77.1896 134.052 76.1989 135.239 75.4886C136.432 74.7784 137.831 74.4233 139.436 74.4233C140.516 74.4233 141.521 74.5973 142.451 74.9453C143.388 75.2862 144.205 75.8011 144.901 76.4901C145.604 77.179 146.151 78.0455 146.542 79.0895C146.932 80.1264 147.128 81.3409 147.128 82.733V83.9794H133.31V81.1669H142.856C142.856 80.5135 142.714 79.9347 142.43 79.4304C142.146 78.9261 141.751 78.532 141.247 78.2479C140.75 77.9567 140.171 77.8111 139.511 77.8111C138.822 77.8111 138.211 77.9709 137.678 78.2905C137.153 78.603 136.741 79.0256 136.442 79.5582C136.144 80.0838 135.991 80.6697 135.984 81.3161V83.9901C135.984 84.7997 136.133 85.4993 136.432 86.0888C136.737 86.6783 137.167 87.1328 137.721 87.4524C138.275 87.772 138.932 87.9318 139.692 87.9318C140.196 87.9318 140.658 87.8608 141.077 87.7188C141.496 87.5767 141.854 87.3636 142.153 87.0795C142.451 86.7955 142.678 86.4474 142.834 86.0355L147.032 86.3125C146.819 87.321 146.382 88.2017 145.722 88.9545C145.068 89.7003 144.223 90.2827 143.186 90.7017C142.156 91.1136 140.967 91.3196 139.617 91.3196ZM157.483 91.3196C155.807 91.3196 154.365 90.9645 153.158 90.2543C151.957 89.5369 151.034 88.5426 150.388 87.2713C149.748 86 149.429 84.5369 149.429 82.8821C149.429 81.206 149.752 79.7358 150.398 78.4716C151.052 77.2003 151.979 76.2095 153.179 75.4993C154.379 74.782 155.807 74.4233 157.462 74.4233C158.889 74.4233 160.139 74.6825 161.212 75.201C162.284 75.7195 163.133 76.4474 163.758 77.3849C164.383 78.3224 164.727 79.4233 164.791 80.6875H160.508C160.388 79.8707 160.068 79.2138 159.55 78.7166C159.038 78.2124 158.367 77.9602 157.536 77.9602C156.833 77.9602 156.219 78.152 155.693 78.5355C155.175 78.9119 154.77 79.4624 154.479 80.1868C154.187 80.9112 154.042 81.7884 154.042 82.8182C154.042 83.8622 154.184 84.75 154.468 85.4815C154.759 86.2131 155.168 86.7706 155.693 87.1541C156.219 87.5376 156.833 87.7294 157.536 87.7294C158.055 87.7294 158.52 87.6229 158.932 87.4098C159.351 87.1967 159.695 86.8878 159.965 86.483C160.242 86.071 160.423 85.5774 160.508 85.0021H164.791C164.72 86.2521 164.379 87.353 163.768 88.3047C163.165 89.2493 162.33 89.9879 161.265 90.5206C160.199 91.0533 158.939 91.3196 157.483 91.3196ZM167.697 91V74.6364H172.235V91H167.697ZM169.977 72.527C169.302 72.527 168.723 72.3033 168.24 71.8558C167.764 71.4013 167.526 70.858 167.526 70.2259C167.526 69.6009 167.764 69.0646 168.24 68.6172C168.723 68.1626 169.302 67.9354 169.977 67.9354C170.651 67.9354 171.227 68.1626 171.703 68.6172C172.185 69.0646 172.427 69.6009 172.427 70.2259C172.427 70.858 172.185 71.4013 171.703 71.8558C171.227 72.3033 170.651 72.527 169.977 72.527ZM180.537 91.3089C179.493 91.3089 178.562 91.1278 177.746 90.7656C176.929 90.3963 176.283 89.853 175.807 89.1357C175.338 88.4112 175.104 87.5092 175.104 86.4297C175.104 85.5206 175.271 84.7571 175.604 84.1392C175.938 83.5213 176.393 83.0241 176.968 82.6477C177.543 82.2713 178.197 81.9872 178.928 81.7955C179.667 81.6037 180.441 81.4688 181.251 81.3906C182.202 81.2912 182.969 81.1989 183.552 81.1136C184.134 81.0213 184.557 80.8864 184.82 80.7088C185.082 80.5312 185.214 80.2685 185.214 79.9205V79.8565C185.214 79.1818 185.001 78.6598 184.574 78.2905C184.155 77.9212 183.559 77.7365 182.785 77.7365C181.968 77.7365 181.318 77.9176 180.835 78.2798C180.352 78.6349 180.033 79.0824 179.876 79.6222L175.679 79.2812C175.892 78.2869 176.311 77.4276 176.936 76.7031C177.561 75.9716 178.367 75.4105 179.354 75.0199C180.349 74.6222 181.499 74.4233 182.806 74.4233C183.715 74.4233 184.585 74.5298 185.416 74.7429C186.254 74.956 186.996 75.2862 187.643 75.7337C188.296 76.1811 188.811 76.7564 189.187 77.4595C189.564 78.1555 189.752 78.9901 189.752 79.9631V91H185.448V88.7308H185.32C185.057 89.2422 184.706 89.6932 184.266 90.0838C183.825 90.4673 183.296 90.7692 182.678 90.9893C182.06 91.2024 181.347 91.3089 180.537 91.3089ZM181.837 88.1768C182.504 88.1768 183.094 88.0455 183.605 87.7827C184.116 87.5128 184.518 87.1506 184.809 86.696C185.1 86.2415 185.246 85.7266 185.246 85.1513V83.4148C185.104 83.5071 184.908 83.5923 184.66 83.6705C184.418 83.7415 184.145 83.8089 183.839 83.8729C183.534 83.9297 183.229 83.983 182.923 84.0327C182.618 84.0753 182.341 84.1143 182.092 84.1499C181.56 84.228 181.094 84.3523 180.697 84.5227C180.299 84.6932 179.99 84.924 179.77 85.2152C179.55 85.4993 179.44 85.8544 179.44 86.2805C179.44 86.8984 179.663 87.3707 180.111 87.6974C180.565 88.017 181.141 88.1768 181.837 88.1768ZM197.811 69.1818V91H193.273V69.1818H197.811ZM208.904 91.3196C207.221 91.3196 205.772 90.9787 204.558 90.2969C203.35 89.608 202.42 88.6349 201.766 87.3778C201.113 86.1136 200.786 84.6186 200.786 82.8928C200.786 81.2095 201.113 79.7322 201.766 78.4609C202.42 77.1896 203.34 76.1989 204.526 75.4886C205.719 74.7784 207.118 74.4233 208.723 74.4233C209.803 74.4233 210.808 74.5973 211.738 74.9453C212.676 75.2862 213.492 75.8011 214.188 76.4901C214.891 77.179 215.438 78.0455 215.829 79.0895C216.22 80.1264 216.415 81.3409 216.415 82.733V83.9794H202.597V81.1669H212.143C212.143 80.5135 212.001 79.9347 211.717 79.4304C211.433 78.9261 211.038 78.532 210.534 78.2479C210.037 77.9567 209.458 77.8111 208.798 77.8111C208.109 77.8111 207.498 77.9709 206.965 78.2905C206.44 78.603 206.028 79.0256 205.729 79.5582C205.431 80.0838 205.278 80.6697 205.271 81.3161V83.9901C205.271 84.7997 205.421 85.4993 205.719 86.0888C206.024 86.6783 206.454 87.1328 207.008 87.4524C207.562 87.772 208.219 87.9318 208.979 87.9318C209.483 87.9318 209.945 87.8608 210.364 87.7188C210.783 87.5767 211.141 87.3636 211.44 87.0795C211.738 86.7955 211.965 86.4474 212.122 86.0355L216.319 86.3125C216.106 87.321 215.669 88.2017 215.009 88.9545C214.355 89.7003 213.51 90.2827 212.473 90.7017C211.443 91.1136 210.254 91.3196 208.904 91.3196ZM232.992 79.3026L228.837 79.5582C228.766 79.2031 228.613 78.8835 228.379 78.5994C228.144 78.3082 227.835 78.0774 227.452 77.907C227.075 77.7294 226.624 77.6406 226.099 77.6406C225.396 77.6406 224.803 77.7898 224.32 78.0881C223.837 78.3793 223.595 78.7699 223.595 79.2599C223.595 79.6506 223.752 79.9808 224.064 80.2507C224.377 80.5206 224.913 80.7372 225.673 80.9006L228.634 81.4972C230.225 81.8239 231.411 82.3494 232.193 83.0739C232.974 83.7983 233.364 84.75 233.364 85.929C233.364 87.0014 233.048 87.9425 232.416 88.7521C231.791 89.5618 230.932 90.1939 229.838 90.6484C228.752 91.0959 227.498 91.3196 226.078 91.3196C223.911 91.3196 222.185 90.8686 220.9 89.9666C219.622 89.0575 218.872 87.8217 218.652 86.2592L223.116 86.0249C223.251 86.6854 223.578 87.1896 224.096 87.5376C224.614 87.8786 225.278 88.049 226.088 88.049C226.884 88.049 227.523 87.8963 228.006 87.5909C228.496 87.2784 228.744 86.8771 228.752 86.3871C228.744 85.9751 228.57 85.6378 228.229 85.375C227.889 85.1051 227.363 84.8991 226.653 84.7571L223.819 84.1925C222.221 83.8729 221.031 83.3189 220.25 82.5305C219.476 81.7422 219.089 80.7372 219.089 79.5156C219.089 78.4645 219.373 77.5589 219.941 76.799C220.516 76.0391 221.323 75.4531 222.359 75.0412C223.403 74.6293 224.625 74.4233 226.024 74.4233C228.091 74.4233 229.717 74.8601 230.903 75.7337C232.097 76.6072 232.793 77.7969 232.992 79.3026Z" fill="#1B0E2B"/>
<path fill-rule="evenodd" clip-rule="evenodd" d="M110 339C110 327.065 114.741 315.619 123.18 307.18C131.619 298.741 143.065 294 155 294C166.935 294 178.381 298.741 186.82 307.18C195.259 315.619 200 327.065 200 339C200 350.935 195.259 362.381 186.82 370.82C178.381 379.259 166.935 384 155 384C143.065 384 131.619 379.259 123.18 370.82C114.741 362.381 110 350.935 110 339ZM152.432 358.26L178.34 325.872L173.66 322.128L151.568 349.734L135.92 336.696L132.08 341.304L152.432 358.26Z" fill="#B830AA"/>
</svg>
