<svg width="310" height="430" viewBox="0 0 310 430" fill="none" xmlns="http://www.w3.org/2000/svg">
<rect width="310" height="430" fill="white"/>
<path d="M138.486 131.859C141.666 134.13 144.708 135.625 147.21 135.954C145.837 138.767 144.886 141.78 144.39 144.89C140.358 143.965 136.524 141.762 133.374 139.516C131.866 138.434 130.406 137.28 129 136.06V149.922C128.999 150.85 128.73 151.756 128.228 152.524C127.725 153.293 127.012 153.888 126.18 154.235L126.144 154.253C125.808 154.396 125.475 154.549 125.148 154.712C124.446 155.054 123.426 155.581 122.232 156.289C119.299 157.997 116.593 160.091 114.18 162.519C111.462 165.33 109.782 169.115 108.84 172.05C107.622 175.81 104.526 179.279 100.122 180.042C99.8093 180.096 99.5253 180.263 99.3199 180.513C99.1146 180.763 99.0013 181.079 99 181.407V192.291C99 193.315 99.72 194.19 100.698 194.357C104.442 195.003 107.388 197.535 109.05 200.6C111.262 204.688 113.996 208.449 117.18 211.782C119.924 214.538 123.152 216.726 126.69 218.229C128.194 218.884 129.747 219.411 131.334 219.805L131.364 219.817C132.388 220.025 133.311 220.593 133.974 221.427C134.637 222.26 135 223.305 135 224.384V232.141C135 232.997 135.672 233.692 136.5 233.692H144C144 231.224 144.948 228.856 146.636 227.111C148.324 225.365 150.613 224.384 153 224.384H165C167.387 224.384 169.676 225.365 171.364 227.111C173.052 228.856 174 231.224 174 233.692H181.5C181.898 233.692 182.279 233.529 182.561 233.238C182.842 232.947 183 232.552 183 232.141V218.179C183 216.423 183.96 214.816 185.472 214.022L185.55 213.978L185.97 213.73C186.36 213.488 186.954 213.11 187.68 212.563C189.132 211.471 191.106 209.777 193.08 207.395C196.998 202.672 201 195.183 201 184.051C201 177.802 199.872 172.757 197.946 168.612C200.091 165.672 201.712 162.361 202.734 158.833C203.334 159.677 203.898 160.552 204.426 161.457C208.05 167.656 210 175.134 210 184.044C210 197.739 205.002 207.314 199.92 213.451C197.606 216.248 194.942 218.714 192 220.785V232.135C192.001 233.561 191.73 234.974 191.202 236.292C190.675 237.61 189.902 238.808 188.927 239.817C187.952 240.826 186.794 241.627 185.52 242.173C184.245 242.719 182.879 243 181.5 243H174C171.613 243 169.324 242.019 167.636 240.274C165.948 238.528 165 236.161 165 233.692H153C153 236.161 152.052 238.528 150.364 240.274C148.676 242.019 146.387 243 144 243H136.5C133.715 243 131.045 241.856 129.075 239.819C127.106 237.783 126 235.021 126 232.141V227.903C125.06 227.575 124.131 227.213 123.216 226.817C118.599 224.847 114.391 221.977 110.82 218.365C107.053 214.422 103.815 209.975 101.19 205.142C100.996 204.741 100.718 204.39 100.376 204.113C100.035 203.836 99.6388 203.641 99.216 203.541C96.6419 203.095 94.3038 201.72 92.6166 199.661C90.9295 197.601 90.0024 194.99 90 192.291V181.413C90 176.182 93.66 171.721 98.64 170.865C99.162 170.771 99.936 170.232 100.302 169.102C101.454 165.522 103.692 160.204 107.82 155.935C110.798 152.922 114.142 150.323 117.768 148.203C118.592 147.719 119.336 147.305 120 146.962V129.259C120 123.438 126.78 121.049 130.44 124.816C132.42 126.857 135.3 129.575 138.486 131.852M156.42 161.383C153.48 160.123 150.996 157.728 150.408 154.495C149.339 148.472 150.459 142.252 153.554 137.031C156.649 131.81 161.5 127.956 167.175 126.209C172.851 124.462 178.951 124.946 184.302 127.567C189.654 130.188 193.881 134.762 196.17 140.409C198.281 145.672 198.577 151.526 197.008 156.988C195.439 162.45 192.101 167.188 187.554 170.405C184.926 172.261 181.536 172.137 178.596 170.877L156.42 161.383ZM182.784 162.5C185.747 160.266 187.818 156.987 188.604 153.282C189.39 149.577 188.837 145.703 187.05 142.391C185.264 139.079 182.366 136.557 178.905 135.303C175.444 134.048 171.659 134.148 168.264 135.582C165.142 136.916 162.548 139.302 160.9 142.351C159.253 145.401 158.649 148.937 159.186 152.385L159.312 152.485C159.486 152.604 159.671 152.703 159.864 152.783L182.04 162.277C182.278 162.382 182.528 162.455 182.784 162.494M132 168.538C132 170.183 131.368 171.762 130.243 172.925C129.117 174.089 127.591 174.743 126 174.743C124.409 174.743 122.883 174.089 121.757 172.925C120.632 171.762 120 170.183 120 168.538C120 166.892 120.632 165.314 121.757 164.15C122.883 162.986 124.409 162.332 126 162.332C127.591 162.332 129.117 162.986 130.243 164.15C131.368 165.314 132 166.892 132 168.538Z" fill="#1B0E2B"/>
<path d="M68.8963 55V33.1818H83.598V36.9851H73.5092V42.1839H82.8416V45.9872H73.5092V51.1967H83.6406V55H68.8963ZM91.7186 45.5398V55H87.1802V38.6364H91.5055V41.5234H91.6973C92.0595 40.5717 92.6667 39.8189 93.519 39.2649C94.3713 38.7038 95.4047 38.4233 96.6191 38.4233C97.7555 38.4233 98.7463 38.6719 99.5914 39.169C100.437 39.6662 101.094 40.3764 101.562 41.2997C102.031 42.2159 102.265 43.3097 102.265 44.581V55H97.7271V45.3906C97.7342 44.3892 97.4785 43.608 96.9601 43.0469C96.4416 42.4787 95.7278 42.1946 94.8187 42.1946C94.2079 42.1946 93.6681 42.326 93.1994 42.5888C92.7377 42.8516 92.3755 43.2351 92.1127 43.7393C91.8571 44.2365 91.7257 44.8366 91.7186 45.5398ZM120.512 38.6364L114.791 55H109.678L103.957 38.6364H108.751L112.149 50.3445H112.32L115.707 38.6364H120.512ZM122.835 55V38.6364H127.373V55H122.835ZM123.484 36.527L125.743 31.6797H129.94L126.691 36.527H123.484ZM138.402 55.3196C136.747 55.3196 135.316 54.968 134.108 54.2649C132.908 53.5547 131.981 52.5675 131.328 51.3033C130.675 50.032 130.348 48.5582 130.348 46.8821C130.348 45.1918 130.675 43.7145 131.328 42.4503C131.981 41.179 132.908 40.1918 134.108 39.4886C135.316 38.7784 136.747 38.4233 138.402 38.4233C140.057 38.4233 141.484 38.7784 142.684 39.4886C143.892 40.1918 144.822 41.179 145.476 42.4503C146.129 43.7145 146.456 45.1918 146.456 46.8821C146.456 48.5582 146.129 50.032 145.476 51.3033C144.822 52.5675 143.892 53.5547 142.684 54.2649C141.484 54.968 140.057 55.3196 138.402 55.3196ZM138.423 51.804C139.176 51.804 139.805 51.5909 140.309 51.1648C140.813 50.7315 141.193 50.142 141.449 49.3963C141.711 48.6506 141.843 47.8018 141.843 46.8501C141.843 45.8984 141.711 45.0497 141.449 44.304C141.193 43.5582 140.813 42.9687 140.309 42.5355C139.805 42.1023 139.176 41.8857 138.423 41.8857C137.663 41.8857 137.024 42.1023 136.506 42.5355C135.994 42.9687 135.607 43.5582 135.344 44.304C135.089 45.0497 134.961 45.8984 134.961 46.8501C134.961 47.8018 135.089 48.6506 135.344 49.3963C135.607 50.142 135.994 50.7315 136.506 51.1648C137.024 51.5909 137.663 51.804 138.423 51.804ZM163.722 61.4773C162.252 61.4773 160.991 61.2749 159.94 60.87C158.896 60.4723 158.065 59.929 157.447 59.2401C156.83 58.5511 156.428 57.777 156.244 56.9176L160.441 56.353C160.569 56.6797 160.771 56.9851 161.048 57.2692C161.325 57.5533 161.691 57.7805 162.146 57.951C162.607 58.1286 163.168 58.2173 163.829 58.2173C164.816 58.2173 165.629 57.9759 166.268 57.4929C166.915 57.017 167.238 56.218 167.238 55.0959V52.1023H167.046C166.847 52.5568 166.549 52.9865 166.151 53.3913C165.754 53.7962 165.242 54.1264 164.617 54.3821C163.992 54.6378 163.246 54.7656 162.38 54.7656C161.151 54.7656 160.033 54.4815 159.024 53.9134C158.023 53.3381 157.224 52.4609 156.627 51.282C156.038 50.0959 155.743 48.5973 155.743 46.7862C155.743 44.9325 156.045 43.3842 156.648 42.1413C157.252 40.8984 158.055 39.968 159.056 39.3501C160.065 38.7322 161.169 38.4233 162.369 38.4233C163.286 38.4233 164.053 38.5795 164.67 38.892C165.288 39.1974 165.786 39.581 166.162 40.0426C166.545 40.4972 166.84 40.9446 167.046 41.3849H167.217V38.6364H171.723V55.1598C171.723 56.5518 171.382 57.7166 170.7 58.6541C170.018 59.5916 169.074 60.2947 167.866 60.7635C166.666 61.2393 165.285 61.4773 163.722 61.4773ZM163.818 51.3565C164.55 51.3565 165.168 51.1754 165.672 50.8132C166.183 50.4439 166.574 49.9183 166.844 49.2365C167.121 48.5476 167.259 47.7237 167.259 46.7649C167.259 45.8061 167.124 44.9751 166.854 44.272C166.585 43.5618 166.194 43.0114 165.683 42.6207C165.171 42.2301 164.55 42.0348 163.818 42.0348C163.072 42.0348 162.444 42.2372 161.933 42.642C161.421 43.0398 161.034 43.5937 160.771 44.304C160.509 45.0142 160.377 45.8345 160.377 46.7649C160.377 47.7095 160.509 48.5263 160.771 49.2152C161.041 49.897 161.428 50.4261 161.933 50.8026C162.444 51.1719 163.072 51.3565 163.818 51.3565ZM175.335 55V38.6364H179.734V41.4915H179.905C180.203 40.4759 180.704 39.7088 181.407 39.1903C182.11 38.6648 182.92 38.402 183.836 38.402C184.063 38.402 184.308 38.4162 184.571 38.4446C184.834 38.473 185.065 38.5121 185.263 38.5618V42.5888C185.05 42.5249 184.756 42.468 184.379 42.4183C184.003 42.3686 183.658 42.3438 183.346 42.3438C182.678 42.3438 182.082 42.4893 181.556 42.7805C181.038 43.0646 180.626 43.4624 180.32 43.9737C180.022 44.4851 179.873 45.0746 179.873 45.7422V55H175.335ZM191.807 55.3089C190.763 55.3089 189.833 55.1278 189.016 54.7656C188.199 54.3963 187.553 53.853 187.077 53.1357C186.608 52.4112 186.374 51.5092 186.374 50.4297C186.374 49.5206 186.541 48.7571 186.875 48.1392C187.209 47.5213 187.663 47.0241 188.238 46.6477C188.814 46.2713 189.467 45.9872 190.199 45.7955C190.937 45.6037 191.711 45.4688 192.521 45.3906C193.473 45.2912 194.24 45.1989 194.822 45.1136C195.405 45.0213 195.827 44.8864 196.09 44.7088C196.353 44.5312 196.484 44.2685 196.484 43.9205V43.8565C196.484 43.1818 196.271 42.6598 195.845 42.2905C195.426 41.9212 194.829 41.7365 194.055 41.7365C193.238 41.7365 192.589 41.9176 192.106 42.2798C191.623 42.6349 191.303 43.0824 191.147 43.6222L186.949 43.2812C187.162 42.2869 187.581 41.4276 188.206 40.7031C188.831 39.9716 189.638 39.4105 190.625 39.0199C191.619 38.6222 192.77 38.4233 194.077 38.4233C194.986 38.4233 195.856 38.5298 196.687 38.7429C197.525 38.956 198.267 39.2862 198.913 39.7337C199.567 40.1811 200.081 40.7564 200.458 41.4595C200.834 42.1555 201.023 42.9901 201.023 43.9631V55H196.719V52.7308H196.591C196.328 53.2422 195.976 53.6932 195.536 54.0838C195.096 54.4673 194.567 54.7692 193.949 54.9893C193.331 55.2024 192.617 55.3089 191.807 55.3089ZM193.107 52.1768C193.775 52.1768 194.364 52.0455 194.876 51.7827C195.387 51.5128 195.788 51.1506 196.079 50.696C196.371 50.2415 196.516 49.7266 196.516 49.1513V47.4148C196.374 47.5071 196.179 47.5923 195.93 47.6705C195.689 47.7415 195.415 47.8089 195.11 47.8729C194.805 47.9297 194.499 47.983 194.194 48.0327C193.888 48.0753 193.611 48.1143 193.363 48.1499C192.83 48.228 192.365 48.3523 191.967 48.5227C191.569 48.6932 191.26 48.924 191.04 49.2152C190.82 49.4993 190.71 49.8544 190.71 50.2805C190.71 50.8984 190.934 51.3707 191.381 51.6974C191.836 52.017 192.411 52.1768 193.107 52.1768ZM213.247 38.6364V42.0455H203.393V38.6364H213.247ZM205.63 34.7159H210.169V49.9716C210.169 50.3906 210.232 50.7173 210.36 50.9517C210.488 51.179 210.666 51.3388 210.893 51.4311C211.127 51.5234 211.397 51.5696 211.703 51.5696C211.916 51.5696 212.129 51.5518 212.342 51.5163C212.555 51.4737 212.718 51.4418 212.832 51.4205L213.546 54.7976C213.318 54.8686 212.999 54.9503 212.587 55.0426C212.175 55.142 211.674 55.2024 211.085 55.2237C209.991 55.2663 209.032 55.1207 208.208 54.7869C207.392 54.4531 206.756 53.9347 206.301 53.2315C205.847 52.5284 205.623 51.6406 205.63 50.5682V34.7159ZM216.204 55V38.6364H220.742V55H216.204ZM218.483 36.527C217.809 36.527 217.23 36.3033 216.747 35.8558C216.271 35.4013 216.033 34.858 216.033 34.2259C216.033 33.6009 216.271 33.0646 216.747 32.6172C217.23 32.1626 217.809 31.9354 218.483 31.9354C219.158 31.9354 219.733 32.1626 220.209 32.6172C220.692 33.0646 220.934 33.6009 220.934 34.2259C220.934 34.858 220.692 35.4013 220.209 35.8558C219.733 36.3033 219.158 36.527 218.483 36.527ZM237.993 43.3026L233.838 43.5582C233.767 43.2031 233.614 42.8835 233.38 42.5994C233.145 42.3082 232.836 42.0774 232.453 41.907C232.076 41.7294 231.625 41.6406 231.1 41.6406C230.397 41.6406 229.804 41.7898 229.321 42.0881C228.838 42.3793 228.596 42.7699 228.596 43.2599C228.596 43.6506 228.752 43.9808 229.065 44.2507C229.377 44.5206 229.914 44.7372 230.674 44.9006L233.635 45.4972C235.226 45.8239 236.412 46.3494 237.194 47.0739C237.975 47.7983 238.365 48.75 238.365 49.929C238.365 51.0014 238.049 51.9425 237.417 52.7521C236.792 53.5618 235.933 54.1939 234.839 54.6484C233.752 55.0959 232.499 55.3196 231.078 55.3196C228.912 55.3196 227.186 54.8686 225.901 53.9666C224.623 53.0575 223.873 51.8217 223.653 50.2592L228.117 50.0249C228.252 50.6854 228.578 51.1896 229.097 51.5376C229.615 51.8786 230.279 52.049 231.089 52.049C231.885 52.049 232.524 51.8963 233.007 51.5909C233.497 51.2784 233.745 50.8771 233.752 50.3871C233.745 49.9751 233.571 49.6378 233.23 49.375C232.89 49.1051 232.364 48.8991 231.654 48.7571L228.82 48.1925C227.222 47.8729 226.032 47.3189 225.251 46.5305C224.477 45.7422 224.09 44.7372 224.09 43.5156C224.09 42.4645 224.374 41.5589 224.942 40.799C225.517 40.0391 226.324 39.4531 227.36 39.0412C228.404 38.6293 229.626 38.4233 231.025 38.4233C233.092 38.4233 234.718 38.8601 235.904 39.7337C237.098 40.6072 237.794 41.7969 237.993 43.3026Z" fill="#1B0E2B"/>
<path fill-rule="evenodd" clip-rule="evenodd" d="M110 339C110 327.065 114.741 315.619 123.18 307.18C131.619 298.741 143.065 294 155 294C166.935 294 178.381 298.741 186.82 307.18C195.259 315.619 200 327.065 200 339C200 350.935 195.259 362.381 186.82 370.82C178.381 379.259 166.935 384 155 384C143.065 384 131.619 379.259 123.18 370.82C114.741 362.381 110 350.935 110 339ZM152.432 358.26L178.34 325.872L173.66 322.128L151.568 349.734L135.92 336.696L132.08 341.304L152.432 358.26Z" fill="#B830AA"/>
</svg>
